<svg width="765" height="358" viewBox="0 0 765 358" fill="none" xmlns="http://www.w3.org/2000/svg">
<path d="M760.607 185.607C766.464 179.749 766.464 170.251 760.607 164.393L665.147 68.934C659.289 63.0761 649.792 63.0761 643.934 68.934C638.076 74.7919 638.076 84.2893 643.934 90.1472L728.787 175L643.934 259.853C638.076 265.711 638.076 275.208 643.934 281.066C649.792 286.924 659.289 286.924 665.147 281.066L760.607 185.607ZM0 190H750V160H0V190Z" fill="black"/>
<path d="M188.371 7.94999C194.771 7.94999 200.521 8.89999 205.621 10.8C210.821 12.6 215.171 15.15 218.671 18.45C222.271 21.65 225.021 25.5 226.921 30C228.821 34.4 229.771 39.2 229.771 44.4C229.771 48.9 229.071 53.15 227.671 57.15C226.271 61.05 224.221 64.55 221.521 67.65C218.921 70.75 215.671 73.4 211.771 75.6C207.971 77.8 203.621 79.35 198.721 80.25V102.75H244.321V120H133.771V102.75H179.971V80.55C174.771 79.85 170.121 78.45 166.021 76.35C162.021 74.15 158.621 71.5 155.821 68.4C153.021 65.2 150.871 61.6 149.371 57.6C147.871 53.5 147.121 49.1 147.121 44.4C147.121 39.2 148.071 34.4 149.971 30C151.871 25.5 154.571 21.65 158.071 18.45C161.571 15.15 165.871 12.6 170.971 10.8C176.071 8.89999 181.871 7.94999 188.371 7.94999ZM188.371 64.5C191.771 64.5 194.821 63.95 197.521 62.85C200.221 61.65 202.521 60.1 204.421 58.2C206.321 56.3 207.771 54.15 208.771 51.75C209.771 49.35 210.271 46.9 210.271 44.4C210.271 41.9 209.771 39.45 208.771 37.05C207.771 34.65 206.321 32.55 204.421 30.75C202.521 28.85 200.221 27.35 197.521 26.25C194.821 25.15 191.771 24.6 188.371 24.6C185.071 24.6 182.071 25.15 179.371 26.25C176.671 27.35 174.371 28.85 172.471 30.75C170.571 32.55 169.071 34.65 167.971 37.05C166.971 39.45 166.471 41.9 166.471 44.4C166.471 46.9 166.971 49.35 167.971 51.75C169.071 54.15 170.571 56.3 172.471 58.2C174.371 60.1 176.671 61.65 179.371 62.85C182.071 63.95 185.071 64.5 188.371 64.5ZM285.024 49.95V57H367.524V73.5H267.624V34.8H349.974V27.75H267.624V11.25H367.524V49.95H285.024ZM267.624 141.3V105.75H285.324V124.65H369.174V141.3H267.624ZM262.824 98.1V81.3H373.374V98.1H262.824ZM393.826 44.25C396.926 43.95 399.576 43.35 401.776 42.45C404.076 41.55 405.926 40.4 407.326 39C408.826 37.5 409.976 35.85 410.776 34.05C411.576 32.15 412.176 30.15 412.576 28.05H396.826V11.25H496.576V28.05H480.526C480.926 30.15 481.526 32.15 482.326 34.05C483.226 35.85 484.376 37.5 485.776 39C487.276 40.4 489.126 41.55 491.326 42.45C493.526 43.35 496.226 43.95 499.426 44.25V60.9C492.526 60.1 486.776 58.6 482.176 56.4C477.676 54.2 474.026 51.4 471.226 48C467.726 52.2 462.926 55.5 456.826 57.9V69H502.426V86.25H391.876V69H438.076V58.35C434.576 57.25 431.476 55.85 428.776 54.15C426.176 52.35 423.926 50.3 422.026 48C419.126 51.4 415.426 54.2 410.926 56.4C406.426 58.6 400.726 60.1 393.826 60.9V44.25ZM478.876 141.3V112.2H396.676V95.4H496.576V141.3H478.876ZM431.326 28.05C432.126 31.85 433.576 35.15 435.676 37.95C437.876 40.75 441.526 42.7 446.626 43.8C451.626 42.7 455.226 40.75 457.426 37.95C459.626 35.15 461.076 31.85 461.776 28.05H431.326Z" fill="#FF3333"/>
<path d="M190.712 215.6C196.612 215.6 201.812 216.45 206.312 218.15C210.812 219.85 214.562 222.25 217.562 225.35C220.662 228.35 222.962 232.05 224.462 236.45C226.062 240.75 226.862 245.55 226.862 250.85C226.862 257.05 225.612 262.3 223.112 266.6C220.712 270.9 217.612 274.5 213.812 277.4C215.812 278.8 217.562 280.25 219.062 281.75C220.662 283.25 221.862 284.85 222.662 286.55H222.512C223.612 288.55 224.412 291.25 224.912 294.65C225.412 298.05 225.662 302.2 225.662 307.1V333.8H207.512V307.1C207.512 299.6 206.162 294.2 203.462 290.9C200.762 287.6 196.512 285.95 190.712 285.95H169.412V333.8H151.262V215.6H190.712ZM169.412 270.2H190.712C196.412 270.2 200.812 268.4 203.912 264.8C207.012 261.2 208.562 256.55 208.562 250.85C208.562 245.15 207.012 240.5 203.912 236.9C200.812 233.3 196.412 231.5 190.712 231.5H169.412V270.2ZM259.66 247.85V333.8H240.91V247.85H259.66ZM259.66 215.6V235.55H240.91V215.6H259.66ZM327.516 313.4C326.116 315.1 323.816 316.6 320.616 317.9C317.516 319.2 313.866 319.85 309.666 319.85C297.666 319.85 288.666 316.75 282.666 310.55C276.666 304.25 273.666 295.35 273.666 283.85V280.1C273.666 268.6 276.666 259.75 282.666 253.55C288.666 247.25 297.666 244.1 309.666 244.1C313.966 244.1 317.616 244.8 320.616 246.2C323.716 247.5 326.016 249 327.516 250.7V246.35H345.816V327.05C345.816 331.55 344.966 335.65 343.266 339.35C341.666 343.15 339.366 346.4 336.366 349.1C333.366 351.8 329.716 353.9 325.416 355.4C321.116 357 316.266 357.8 310.866 357.8C305.466 357.8 300.566 357 296.166 355.4C291.866 353.9 288.166 351.8 285.066 349.1C282.066 346.4 279.716 343.15 278.016 339.35C276.316 335.65 275.466 331.55 275.466 327.05V323H294.216V327.05C294.216 331.05 295.716 334.15 298.716 336.35C301.716 338.55 305.766 339.65 310.866 339.65C315.966 339.65 320.016 338.55 323.016 336.35C326.016 334.15 327.516 331.05 327.516 327.05V313.4ZM309.666 301.7C315.766 301.7 320.266 300 323.166 296.6C326.066 293.1 327.516 288.25 327.516 282.05V281.75C327.516 275.55 326.066 270.75 323.166 267.35C320.266 263.95 315.766 262.25 309.666 262.25C304.366 262.25 300.066 263.85 296.766 267.05C293.466 270.25 291.816 275.15 291.816 281.75V282.05C291.816 288.75 293.466 293.7 296.766 296.9C300.066 300.1 304.366 301.7 309.666 301.7ZM414.249 333.8V284.45C414.249 278.25 412.849 273.25 410.049 269.45C407.349 265.65 403.099 263.75 397.299 263.75C391.799 263.75 387.599 265.65 384.699 269.45C381.799 273.25 380.349 278.25 380.349 284.45V333.8H362.199V215.6H380.349V251.75C381.949 250.05 384.199 248.6 387.099 247.4C389.999 246.2 393.399 245.6 397.299 245.6C420.799 245.6 432.549 257.6 432.549 281.6V333.8H414.249ZM473.818 224.15V247.85H490.468V263.75H473.818V304.7C473.818 309.9 474.568 313.4 476.068 315.2C477.668 317 479.918 317.9 482.818 317.9H491.068V333.8H481.618C476.818 333.8 472.768 333.3 469.468 332.3C466.168 331.4 463.468 329.85 461.368 327.65C459.368 325.45 457.918 322.6 457.018 319.1C456.118 315.5 455.668 311.1 455.668 305.9V263.75H443.518V247.85H455.668V224.15H473.818Z" fill="#FF3333"/>
</svg>
