<svg width="765" height="350" viewBox="0 0 765 350" fill="none" xmlns="http://www.w3.org/2000/svg">
<path d="M4.39337 164.393C-1.46448 170.251 -1.46448 179.749 4.39337 185.607L99.8528 281.066C105.711 286.924 115.208 286.924 121.066 281.066C126.924 275.208 126.924 265.711 121.066 259.853L36.2132 175L121.066 90.1472C126.924 84.2893 126.924 74.7918 121.066 68.934C115.208 63.0761 105.711 63.0761 99.8528 68.934L4.39337 164.393ZM765 160L15 160V190L765 190V160Z" fill="black"/>
<path d="M368.497 7.34999C373.297 7.34999 377.747 8.04999 381.847 9.44999C386.047 10.85 389.697 12.9 392.797 15.6C395.997 18.2 398.497 21.45 400.297 25.35C402.097 29.15 402.997 33.45 402.997 38.25C402.997 42.35 402.347 46.05 401.047 49.35C399.847 52.65 398.097 55.6 395.797 58.2C393.597 60.7 390.947 62.8 387.847 64.5C384.847 66.2 381.547 67.45 377.947 68.25V75.6H418.297V11.25H435.997V107.7H418.297V92.7H328.897V75.6H359.197V68.4C355.597 67.6 352.247 66.35 349.147 64.65C346.147 62.95 343.497 60.85 341.197 58.35C338.997 55.75 337.247 52.8 335.947 49.5C334.747 46.1 334.147 42.35 334.147 38.25C334.147 33.45 335.047 29.15 336.847 25.35C338.647 21.45 341.097 18.2 344.197 15.6C347.297 12.9 350.947 10.85 355.147 9.44999C359.347 8.04999 363.797 7.34999 368.497 7.34999ZM339.097 141.3V101.4H356.797V124.65H437.647V141.3H339.097ZM368.497 52.2C370.697 52.2 372.747 51.85 374.647 51.15C376.547 50.35 378.147 49.3 379.447 48C380.847 46.7 381.897 45.2 382.597 43.5C383.397 41.8 383.797 40.05 383.797 38.25C383.797 36.45 383.397 34.75 382.597 33.15C381.897 31.45 380.847 29.95 379.447 28.65C378.147 27.35 376.547 26.35 374.647 25.65C372.747 24.85 370.697 24.45 368.497 24.45C366.297 24.45 364.297 24.85 362.497 25.65C360.697 26.35 359.097 27.35 357.697 28.65C356.397 29.95 355.347 31.45 354.547 33.15C353.847 34.75 353.497 36.45 353.497 38.25C353.497 41.95 354.897 45.2 357.697 48C360.497 50.8 364.097 52.2 368.497 52.2ZM457.8 44.25C460.9 43.95 463.55 43.35 465.75 42.45C468.05 41.55 469.9 40.4 471.3 39C472.8 37.5 473.95 35.85 474.75 34.05C475.55 32.15 476.15 30.15 476.55 28.05H460.8V11.25H560.55V28.05H544.5C544.9 30.15 545.5 32.15 546.3 34.05C547.2 35.85 548.35 37.5 549.75 39C551.25 40.4 553.1 41.55 555.3 42.45C557.5 43.35 560.2 43.95 563.4 44.25V60.9C556.5 60.1 550.75 58.6 546.15 56.4C541.65 54.2 538 51.4 535.2 48C531.7 52.2 526.9 55.5 520.8 57.9V69H566.4V86.25H455.85V69H502.05V58.35C498.55 57.25 495.45 55.85 492.75 54.15C490.15 52.35 487.9 50.3 486 48C483.1 51.4 479.4 54.2 474.9 56.4C470.4 58.6 464.7 60.1 457.8 60.9V44.25ZM542.85 141.3V112.2H460.65V95.4H560.55V141.3H542.85ZM495.3 28.05C496.1 31.85 497.55 35.15 499.65 37.95C501.85 40.75 505.5 42.7 510.6 43.8C515.6 42.7 519.2 40.75 521.4 37.95C523.6 35.15 525.05 31.85 525.75 28.05H495.3Z" fill="#FF3333"/>
<path d="M337.916 215.6V316.7H387.416V333.8H319.166V215.6H337.916ZM414.311 300.35C414.311 305.45 415.861 309.7 418.961 313.1C422.161 316.5 426.661 318.2 432.461 318.2C435.561 318.2 438.261 317.85 440.561 317.15C442.861 316.35 444.761 315.35 446.261 314.15C447.761 312.85 448.861 311.4 449.561 309.8C450.261 308.2 450.611 306.6 450.611 305V303.8H468.911V305C468.911 308.9 468.211 312.7 466.811 316.4C465.411 320.1 463.211 323.35 460.211 326.15C457.211 329.05 453.411 331.35 448.811 333.05C444.211 334.85 438.761 335.75 432.461 335.75C427.061 335.75 422.111 334.9 417.611 333.2C413.211 331.6 409.411 329.15 406.211 325.85C403.011 322.55 400.511 318.45 398.711 313.55C397.011 308.65 396.161 302.95 396.161 296.45V283.85C396.161 278.65 396.961 273.75 398.561 269.15C400.161 264.45 402.511 260.35 405.611 256.85C408.811 253.35 412.661 250.6 417.161 248.6C421.761 246.6 427.061 245.6 433.061 245.6C439.061 245.6 444.311 246.55 448.811 248.45C453.411 250.35 457.261 252.95 460.361 256.25C463.561 259.55 465.961 263.4 467.561 267.8C469.161 272.2 469.961 276.9 469.961 281.9V295.4H414.311V300.35ZM451.811 279.5C451.811 277.3 451.411 275.25 450.611 273.35C449.811 271.35 448.611 269.6 447.011 268.1C445.411 266.6 443.411 265.4 441.011 264.5C438.711 263.6 436.061 263.15 433.061 263.15C430.161 263.15 427.511 263.6 425.111 264.5C422.811 265.4 420.861 266.6 419.261 268.1C417.661 269.6 416.411 271.35 415.511 273.35C414.711 275.25 414.311 277.3 414.311 279.5H451.811ZM526.857 215.6V231.5H518.607C515.407 231.5 513.157 232.35 511.857 234.05C510.557 235.65 509.907 238.4 509.907 242.3V247.85H526.257V263.75H509.907V333.8H491.007V263.75H478.707V247.85H491.007V242.3C491.007 233.7 493.157 227.1 497.457 222.5C501.757 217.9 508.807 215.6 518.607 215.6H526.857ZM562.914 224.15V247.85H579.564V263.75H562.914V304.7C562.914 309.9 563.664 313.4 565.164 315.2C566.764 317 569.014 317.9 571.914 317.9H580.164V333.8H570.714C565.914 333.8 561.864 333.3 558.564 332.3C555.264 331.4 552.564 329.85 550.464 327.65C548.464 325.45 547.014 322.6 546.114 319.1C545.214 315.5 544.764 311.1 544.764 305.9V263.75H532.614V247.85H544.764V224.15H562.914Z" fill="#FF3333"/>
</svg>
